# xmcd CD database file generated by Grip 3.2.0
# 
# Track frame offsets:
#       150
#       24389
#       45603
#       81674
#       123081
#       141012
#       157574
#       178425
#       197921
#       228634
#       241288
#       249777
#       260731
#       278893
#       293108
#       314071
# 
# Disc length: 4765 seconds
# 
# Revision: 3
# Processed by: cddbd v1.5.2PL0 Copyright (c) Steve Scherf et al.
# Submitted via: Grip 3.2.0
# 
DISCID=e7129b10
DTITLE=Stevie Ray Vaughan - Tin Pan Alley (Guitar Heroes Vol. 3)
DYEAR=2000
DGENRE=Blues
TTITLE0=Texas Flood
TTITLE1=Couldn't Stand the Weather
TTITLE2=Voodoo Chile (Slight Return)
TTITLE3=Tin Pan Alley (Aka Roughest Place in Town)
TTITLE4=Change It
TTITLE5=Pride and Joy
TTITLE6=The Sky Is Crying
TTITLE7=Life Without You
TTITLE8=Little Wing
TTITLE9=Mary Had a Little Lamb
TTITLE10=Scuttle Buttin'
TTITLE11=The House Is Rockin'
TTITLE12=Cold Shot
TTITLE13=Look a Little Sister
TTITLE14=Superstition (Live)
TTITLE15=Voodoo Chile (Slight Return) (Live)
EXTD=Guitar Heroes Vol. 3 - Tin Pan Alley (1983 - 1991]\nSony - Vereinigte 
EXTD=Motor-Verlage, Stuttgart - Zounds\n986 305-2 - CD 2700011003B\nDigital
EXTD=ly remastered with CEDAR
EXTT0=
EXTT1=
EXTT2=
EXTT3=
EXTT4=
EXTT5=
EXTT6=
EXTT7=
EXTT8=
EXTT9=
EXTT10=
EXTT11=
EXTT12=
EXTT13=
EXTT14=
EXTT15=
PLAYORDER=
